<svg xmlns="http://www.w3.org/2000/svg" width="128" height="128" viewBox="0 0 128 128" fill="none">
  <rect width="128" height="128" rx="32" fill="#0D111B"/>
  <circle cx="64" cy="64" r="30" stroke="#8B5CF6" stroke-width="8"/>
  <path d="M64 32C50 32 39 43 39 58c0 11 5 20 9 28 4 7 5 16 8 22 2 4 5 7 8 7s6-3 8-7c3-6 4-15 8-22 4-8 9-17 9-28 0-15-11-26-25-26Z" fill="#F8FAFC"/>
  <path d="M64 40c7 0 12 5 12 12 0 7-5 12-9 17l4 23-7-6-7 6 4-23c-4-5-9-10-9-17 0-7 5-12 12-12Z" fill="#0D111B"/>
  <path d="M90 28h12M96 22v12" stroke="#C4B5FD" stroke-width="6" stroke-linecap="round"/>
</svg>
