<svg xmlns="http://www.w3.org/2000/svg" width="152" height="40" viewBox="0 0 152 40" fill="none">
  <rect x="1" y="1" width="38" height="38" rx="11" fill="#0D111B" stroke="#1F2937" stroke-width="2"/>
  <circle cx="20" cy="20" r="9" stroke="#8B5CF6" stroke-width="3"/>
  <path d="M20 8c-4.5 0-8 3.6-8 8.4 0 3.4 1.7 6.3 3.1 8.7 1.1 2 1.4 4.6 2.6 6.4.6.9 1.3 1.5 2.3 1.5s1.7-.6 2.3-1.5c1.2-1.8 1.5-4.4 2.6-6.4 1.4-2.4 3.1-5.3 3.1-8.7C28 11.6 24.5 8 20 8Z" fill="#F8FAFC"/>
  <path d="M53 26V14h4.2l4.8 8.7 4.9-8.7H71v12h-3.6v-6.1L63.8 26h-3.5l-3.7-6.1V26H53Z" fill="#F8FAFC"/>
  <path d="M76 26V14h9.1v3.1h-5.3v1.7h5v3h-5v1.1h5.5V26H76Z" fill="#F8FAFC"/>
  <path d="M88.4 26V14h4v12h-4Z" fill="#F8FAFC"/>
  <path d="M96 26V14h4v8.8h5.4V26H96Z" fill="#F8FAFC"/>
  <path d="M109 26V14h3.9v4.2h4V14h3.9v12h-3.9v-4.4h-4V26H109Z" fill="#F8FAFC"/>
  <path d="M125.3 26V14h10v3.2h-6v1.8h5.6v3.1h-5.6V26h-4Z" fill="#F8FAFC"/>
  <path d="M139.2 26V14h4v12h-4Z" fill="#8B5CF6"/>
</svg>
