<svg xmlns="http://www.w3.org/2000/svg" width="320" height="72" viewBox="0 0 320 72" fill="none">
  <rect x="2" y="2" width="68" height="68" rx="18" fill="#111827" stroke="#334155" stroke-width="4"/>
  <circle cx="36" cy="36" r="16" stroke="#8B5CF6" stroke-width="5"/>
  <path d="M36 15c-8 0-14.5 6.5-14.5 15.2 0 6.2 3.1 11.4 5.5 15.8 2 3.7 2.6 8.4 4.7 11.8 1.1 1.7 2.4 2.8 4.3 2.8s3.2-1.1 4.3-2.8c2.1-3.4 2.7-8.1 4.7-11.8 2.4-4.4 5.5-9.6 5.5-15.8C50.5 21.5 44 15 36 15Z" fill="#F8FAFC"/>
  <path d="M36 21c4.7 0 8.4 3.8 8.4 8.5 0 4.5-3.2 7.8-6 11.2l2.1 12.7-4.5-3.8-4.5 3.8 2.1-12.7c-2.8-3.4-6-6.7-6-11.2 0-4.7 3.7-8.5 8.4-8.5Z" fill="#111827"/>
  <path d="M58 16h8M62 12v8" stroke="#DDD6FE" stroke-width="4" stroke-linecap="round"/>
  <path d="M92 46V24h8l9 15.6L118 24h8v22h-6.6V34.9L112.8 46h-6.5l-6.7-11.1V46H92Z" fill="#0F172A"/>
  <path d="M137 46V24h16.8v5.8h-9.8V33h9.2v5.5h-9.2v1.9h10.2V46H137Z" fill="#0F172A"/>
  <path d="M161 46V24h7.1v22H161Z" fill="#0F172A"/>
  <path d="M175 46V24h7.3v16.2h9.9V46H175Z" fill="#0F172A"/>
  <path d="M198 46V24h7.1v7.6h7.4V24h7.1v22h-7.1v-8h-7.4v8H198Z" fill="#0F172A"/>
  <path d="M229 46V24h18.2v5.8h-11V33h10.2v5.6h-10.2V46H229Z" fill="#0F172A"/>
  <path d="M254 46V24h7.1v22H254Z" fill="#8B5CF6"/>
</svg>
