<svg xmlns="http://www.w3.org/2000/svg" width="700" height="320" viewBox="0 0 700 320">
  <defs>
    <style>text { font-family: 'Courier New', Courier, monospace; }</style>
  </defs>

  <!-- Background -->
  <rect width="700" height="320" fill="#0d1117" rx="8"/>

  <!-- Header bar -->
  <rect width="700" height="36" fill="#161b22" rx="8"/>
  <rect y="16" width="700" height="20" fill="#161b22"/>
  <!-- Window controls -->
  <circle cx="20" cy="18" r="6" fill="#ff5f57"/>
  <circle cx="40" cy="18" r="6" fill="#febc2e"/>
  <circle cx="60" cy="18" r="6" fill="#28c840"/>
  <!-- Title -->
  <text x="350" y="23" fill="#8b949e" font-size="12" text-anchor="middle">AmbientCT  --  DICOM Viewer  --  http://localhost:3000</text>

  <!-- Left panel -->
  <rect x="0" y="36" width="200" height="268" fill="#0d1117"/>
  <rect x="0" y="36" width="200" height="28" fill="#161b22"/>
  <text x="10" y="54" fill="#e6edf3" font-size="11" font-weight="bold">PATIENTS</text>

  <!-- Active patient row -->
  <rect x="4" y="70" width="192" height="22" fill="#1f6feb" rx="4"/>
  <text x="12" y="84" fill="#ffffff" font-size="11">&gt; Mueller, A.   CBCT</text>
  <text x="12" y="106" fill="#8b949e" font-size="11">  Schmidt, B.   OPG</text>
  <text x="12" y="126" fill="#8b949e" font-size="11">  Weber, C.     CBCT</text>
  <text x="12" y="146" fill="#8b949e" font-size="11">  Fischer, D.   CT</text>

  <!-- Preset section -->
  <rect x="0" y="160" width="200" height="1" fill="#30363d"/>
  <text x="10" y="178" fill="#8b949e" font-size="10">WINDOW PRESET</text>
  <rect x="8" y="184" width="184" height="24" fill="#21262d" rx="4" stroke="#30363d" stroke-width="1"/>
  <text x="16" y="200" fill="#e6edf3" font-size="11">Bone (W:2000 / L:500)  v</text>

  <text x="10" y="228" fill="#8b949e" font-size="10">TOOLS</text>
  <rect x="8" y="234" width="56" height="22" fill="#21262d" rx="4" stroke="#30363d" stroke-width="1"/>
  <text x="14" y="249" fill="#e6edf3" font-size="10">W/L</text>
  <rect x="72" y="234" width="56" height="22" fill="#21262d" rx="4" stroke="#30363d" stroke-width="1"/>
  <text x="80" y="249" fill="#e6edf3" font-size="10">Zoom</text>
  <rect x="136" y="234" width="56" height="22" fill="#21262d" rx="4" stroke="#30363d" stroke-width="1"/>
  <text x="144" y="249" fill="#e6edf3" font-size="10">Length</text>

  <!-- Panel divider -->
  <rect x="200" y="36" width="1" height="268" fill="#30363d"/>

  <!-- Right panel -->
  <rect x="201" y="36" width="499" height="268" fill="#0d1117"/>

  <!-- Tab bar -->
  <rect x="201" y="36" width="499" height="28" fill="#161b22"/>
  <rect x="201" y="36" width="90" height="28" fill="#0d1117"/>
  <text x="246" y="54" fill="#e6edf3" font-size="11" text-anchor="middle">Axial</text>
  <text x="336" y="54" fill="#8b949e" font-size="11" text-anchor="middle">Sagittal</text>
  <text x="426" y="54" fill="#8b949e" font-size="11" text-anchor="middle">Coronal</text>
  <text x="516" y="54" fill="#8b949e" font-size="11" text-anchor="middle">3D Vol</text>
  <!-- Active tab underline -->
  <rect x="201" y="62" width="90" height="2" fill="#3b82f6"/>

  <!-- CBCT scan: skull cross-section -->
  <ellipse cx="450" cy="175" rx="165" ry="138" fill="#111827"/>
  <ellipse cx="450" cy="175" rx="145" ry="120" fill="#1e2433"/>
  <ellipse cx="450" cy="175" rx="143" ry="118" fill="none" stroke="#6b7280" stroke-width="7"/>
  <ellipse cx="450" cy="175" rx="125" ry="102" fill="#141b2e"/>

  <!-- Teeth -->
  <rect x="402" y="222" width="96" height="28" fill="#374151" rx="3"/>
  <rect x="405" y="224" width="13" height="20" fill="#6b7280" rx="2"/>
  <rect x="421" y="224" width="13" height="24" fill="#9ca3af" rx="2"/>
  <rect x="437" y="225" width="13" height="23" fill="#6b7280" rx="2"/>
  <rect x="453" y="224" width="13" height="24" fill="#9ca3af" rx="2"/>
  <rect x="469" y="224" width="13" height="20" fill="#6b7280" rx="2"/>
  <rect x="485" y="226" width="10" height="18" fill="#4b5563" rx="2"/>

  <!-- Mandibular canal (blue dashed) -->
  <path d="M 397 248 Q 450 262 503 248" fill="none" stroke="#3b82f6" stroke-width="2" stroke-dasharray="5,3"/>

  <!-- Crosshair -->
  <line x1="450" y1="90" x2="450" y2="265" stroke="#22c55e" stroke-width="1" opacity="0.6"/>
  <line x1="305" y1="175" x2="595" y2="175" stroke="#22c55e" stroke-width="1" opacity="0.6"/>
  <circle cx="450" cy="175" r="5" fill="none" stroke="#22c55e" stroke-width="1.5"/>

  <!-- Measurement -->
  <line x1="388" y1="138" x2="512" y2="138" stroke="#facc15" stroke-width="1.5"/>
  <line x1="388" y1="133" x2="388" y2="143" stroke="#facc15" stroke-width="1.5"/>
  <line x1="512" y1="133" x2="512" y2="143" stroke="#facc15" stroke-width="1.5"/>
  <text x="450" y="133" fill="#facc15" font-size="10" text-anchor="middle">42.3 mm</text>

  <!-- Status bar -->
  <rect x="0" y="298" width="700" height="22" fill="#161b22"/>
  <circle cx="18" cy="309" r="4" fill="#22c55e"/>
  <text x="27" y="314" fill="#22c55e" font-size="10">Orthanc PACS</text>
  <circle cx="118" cy="309" r="4" fill="#22c55e"/>
  <text x="127" y="314" fill="#22c55e" font-size="10">DICOMweb</text>
  <circle cx="200" cy="309" r="4" fill="#22c55e"/>
  <text x="209" y="314" fill="#22c55e" font-size="10">Auth</text>
  <text x="688" y="314" fill="#8b949e" font-size="10" text-anchor="end">v1.0.0</text>
</svg>
